<svg width="1200" height="760" viewBox="0 0 1200 760" fill="none" xmlns="http://www.w3.org/2000/svg">
  <defs>
    <linearGradient id="bg" x1="120" y1="70" x2="1080" y2="690" gradientUnits="userSpaceOnUse">
      <stop stop-color="#FFF9FB"/>
      <stop offset="1" stop-color="#FFF0F5"/>
    </linearGradient>
    <linearGradient id="card" x1="250" y1="120" x2="958" y2="620" gradientUnits="userSpaceOnUse">
      <stop stop-color="#FFFFFF"/>
      <stop offset="1" stop-color="#FFF8FA"/>
    </linearGradient>
    <linearGradient id="accent" x1="0" y1="0" x2="1" y2="1">
      <stop stop-color="#FF8FAB"/>
      <stop offset="1" stop-color="#FF6B8A"/>
    </linearGradient>
    <filter id="shadow" x="190" y="82" width="824" height="594" filterUnits="userSpaceOnUse" color-interpolation-filters="sRGB">
      <feFlood flood-opacity="0" result="BackgroundImageFix"/>
      <feColorMatrix in="SourceAlpha" type="matrix" values="0 0 0 0 0 0 0 0 0 0 0 0 0 0 0 0 0 0 127 0" result="hardAlpha"/>
      <feOffset dy="14"/>
      <feGaussianBlur stdDeviation="18"/>
      <feColorMatrix type="matrix" values="0 0 0 0 1 0 0 0 0 0.560784 0 0 0 0 0.670588 0 0 0 0.22 0"/>
      <feBlend mode="normal" in2="BackgroundImageFix" result="effect1_dropShadow_1_1"/>
      <feBlend mode="normal" in="SourceGraphic" in2="effect1_dropShadow_1_1" result="shape"/>
    </filter>
  </defs>

  <rect width="1200" height="760" rx="32" fill="url(#bg)"/>
  <circle cx="1052" cy="116" r="92" fill="#FFD9E5" fill-opacity="0.6"/>
  <circle cx="132" cy="652" r="100" fill="#FFE6EF" fill-opacity="0.92"/>

  <g filter="url(#shadow)">
    <rect x="226" y="118" width="752" height="522" rx="34" fill="url(#card)"/>
  </g>

  <rect x="290" y="180" width="190" height="190" rx="28" fill="#FFD8E4"/>
  <rect x="320" y="212" width="130" height="130" rx="22" fill="#FFF5F8"/>
  <path d="M365 277L408 252V302L365 277Z" fill="#FF8FAB"/>

  <rect x="520" y="206" width="282" height="24" rx="12" fill="#4A3C42"/>
  <rect x="520" y="246" width="156" height="16" rx="8" fill="#B08A96"/>
  <rect x="520" y="286" width="332" height="52" rx="18" fill="#FFF2F6" stroke="#FFD5E2" stroke-width="2"/>
  <rect x="548" y="304" width="182" height="14" rx="7" fill="#E4B8C7"/>

  <rect x="358" y="414" width="420" height="12" rx="6" fill="#FFE1EB"/>
  <rect x="358" y="414" width="184" height="12" rx="6" fill="url(#accent)"/>
  <circle cx="542" cy="420" r="14" fill="#FF6B8A"/>

  <circle cx="408" cy="503" r="28" fill="#FFF0F5"/>
  <path d="M396 503H420" stroke="#8B6F79" stroke-width="4" stroke-linecap="round"/>
  <circle cx="474" cy="503" r="28" fill="#FFF0F5"/>
  <path d="M486 489V517" stroke="#8B6F79" stroke-width="4" stroke-linecap="round"/>
  <path d="M460 503L486 487V519L460 503Z" fill="#8B6F79"/>
  <circle cx="572" cy="503" r="46" fill="url(#accent)"/>
  <path d="M556 478V528L604 503L556 478Z" fill="white"/>
  <circle cx="670" cy="503" r="28" fill="#FFF0F5"/>
  <path d="M658 487L684 503L658 519V487Z" fill="#8B6F79"/>
  <path d="M686 489V517" stroke="#8B6F79" stroke-width="4" stroke-linecap="round"/>
  <circle cx="736" cy="503" r="28" fill="#FFF0F5"/>
  <path d="M722 496H748" stroke="#8B6F79" stroke-width="4" stroke-linecap="round"/>
  <path d="M738 486L748 496L738 506" stroke="#8B6F79" stroke-width="4" stroke-linecap="round" stroke-linejoin="round"/>

  <path d="M802 492H818L836 476V530L818 514H802V492Z" fill="#8B6F79"/>
  <rect x="850" y="500" width="94" height="10" rx="5" fill="#FFE1EB"/>
  <rect x="850" y="500" width="62" height="10" rx="5" fill="#FF8FAB"/>
  <circle cx="912" cy="505" r="12" fill="#FF6B8A"/>

  <rect x="288" y="564" width="118" height="42" rx="21" fill="#FFF0F5"/>
  <rect x="420" y="564" width="118" height="42" rx="21" fill="url(#accent)"/>
  <rect x="552" y="564" width="118" height="42" rx="21" fill="#FFF0F5"/>

  <rect x="710" y="556" width="214" height="18" rx="9" fill="#FFE6EF"/>
  <rect x="710" y="582" width="172" height="18" rx="9" fill="#FFE6EF"/>
  <rect x="710" y="608" width="234" height="18" rx="9" fill="#FFE6EF"/>
  <circle cx="734" cy="565" r="5" fill="#FF8FAB"/>
  <circle cx="734" cy="591" r="5" fill="#FF8FAB"/>
  <circle cx="734" cy="617" r="5" fill="#FF8FAB"/>

  <g>
    <circle cx="216" cy="418" r="26" fill="#FF6B8A"/>
    <text x="207" y="427" fill="white" font-family="'Zen Maru Gothic', 'Hiragino Sans', sans-serif" font-size="24" font-weight="700">1</text>
    <path d="M238 418H272" stroke="#FF6B8A" stroke-width="4" stroke-linecap="round"/>
  </g>

  <g>
    <circle cx="572" cy="614" r="26" fill="#FF6B8A"/>
    <text x="563" y="623" fill="white" font-family="'Zen Maru Gothic', 'Hiragino Sans', sans-serif" font-size="24" font-weight="700">2</text>
    <path d="M572 588V550" stroke="#FF6B8A" stroke-width="4" stroke-linecap="round"/>
  </g>

  <g>
    <circle cx="820" cy="392" r="26" fill="#FF6B8A"/>
    <text x="811" y="401" fill="white" font-family="'Zen Maru Gothic', 'Hiragino Sans', sans-serif" font-size="24" font-weight="700">3</text>
    <path d="M802 408L768 426" stroke="#FF6B8A" stroke-width="4" stroke-linecap="round"/>
  </g>

  <g>
    <circle cx="964" cy="498" r="26" fill="#FF6B8A"/>
    <text x="955" y="507" fill="white" font-family="'Zen Maru Gothic', 'Hiragino Sans', sans-serif" font-size="24" font-weight="700">4</text>
    <path d="M942 498H926" stroke="#FF6B8A" stroke-width="4" stroke-linecap="round"/>
  </g>

  <g>
    <circle cx="694" cy="668" r="26" fill="#FF6B8A"/>
    <text x="685" y="677" fill="white" font-family="'Zen Maru Gothic', 'Hiragino Sans', sans-serif" font-size="24" font-weight="700">5</text>
    <path d="M710 652L730 632" stroke="#FF6B8A" stroke-width="4" stroke-linecap="round"/>
  </g>
</svg>
